<svg id="SvgjsSvg1241" width="100%" height="100%" xmlns="http://www.w3.org/2000/svg" version="1.1" xlink="http://www.w3.org/1999/xlink" xmlns:svgjs="http://svgjs.com/svgjs" preserveAspectRatio="xMidYMid meet" viewBox="0.000001038820187204692 -4.1023335484169365e-7 300 27.815759658813477" overflow="visible"><defs id="SvgjsDefs1242"></defs><g id="SvgjsG1243" transform="scale(0.38736300658232337)" opacity="1"><g id="SvgjsG1244" class="HdahzfZgm" transform="translate(-6.227476162566512, -26.100219604171542) scale(1.199899716522327)" light-content="false" non-strokable="false" fill="#551089"><path d="M45.499 21.752a17.239 17.239 0 0 1 4.835 11.982 17.24 17.24 0 0 1-5.173 12.323h.38c5.839 0 11.207 2.377 15.115 6.68a21.65 21.65 0 0 1 3.718 5.729l.704-.713L77.026 45.81l3.76-3.766 3.766 3.766 3.048 3.042 3.76 3.766-3.76 3.76-8.183 8.183 2.862 2.872 3.766 3.766-3.766 3.756-6.637 6.642h19.845V21.752H45.5zM33.038 45.715a11.94 11.94 0 0 0 6.76-2.092 11.971 11.971 0 0 0 5.216-9.89c0-4.103-2.068-7.726-5.216-9.889a11.98 11.98 0 0 0-6.76-2.092c-6.624 0-11.982 5.363-11.982 11.982 0 6.617 5.358 11.98 11.982 11.98z"></path><path d="M71.886 64.561l11.948-11.943-3.047-3.043L68.843 61.52l-2.096 2.092-5.806 5.81v-2.159c0-8.026-6.142-15.88-15.4-15.88h-5.743l-19.398-.02c-8.43 0-15.21 6.975-15.21 15.676v14.558h62.926l10.403-10.398-6.633-6.638z"></path></g><g id="SvgjsG1245" class="text" transform="translate(460.6073566784832, 57.864001525878905) scale(1)" light-content="false" fill="#303030"><path d="M-313.26 -36.18L-301.38 -36.18L-301.38 0L-292.98 0L-292.98 -36.18L-280.8 -36.18L-280.8 -43.92L-313.26 -43.92Z M-270.06 -8.64C-270.06 -7.08 -269.83 -5.73 -269.37 -4.59C-268.91 -3.45 -268.33 -2.58 -267.63 -1.98C-266.93 -1.38 -266.1 -0.9 -265.14 -0.54C-264.18 -0.18 -263.3 0.04 -262.5 0.12C-261.7 0.2 -260.84 0.22 -259.92 0.18L-256.02 0C-253.38 -0.08 -250.5 -0.21 -247.38 -0.39C-244.26 -0.57 -242.2 -0.72 -241.2 -0.84L-241.2 -7.74L-257.94 -7.74C-258.54 -7.74 -258.99 -7.75 -259.29 -7.77C-259.59 -7.79 -259.96 -7.89 -260.4 -8.07C-260.84 -8.25 -261.16 -8.57 -261.36 -9.03C-261.56 -9.49 -261.66 -10.1 -261.66 -10.86L-261.66 -17.7L-243.9 -18.24L-243.9 -25.2L-261.66 -25.8L-261.66 -32.64C-261.66 -33.2 -261.64 -33.62 -261.6 -33.9C-261.56 -34.18 -261.45 -34.52 -261.27 -34.92C-261.09 -35.32 -260.78 -35.6 -260.34 -35.76C-259.9 -35.92 -259.3 -36 -258.54 -36L-241.2 -36L-241.2 -42.96C-243.76 -43.32 -250.2 -43.64 -260.52 -43.92C-261.44 -43.92 -262.31 -43.86 -263.13 -43.74C-263.95 -43.62 -264.79 -43.35 -265.65 -42.93C-266.51 -42.51 -267.26 -41.98 -267.9 -41.34C-268.54 -40.7 -269.06 -39.82 -269.46 -38.7C-269.86 -37.58 -270.06 -36.28 -270.06 -34.8Z M-231.48 0L-222.48 0L-219.3 -9.72L-204.9 -9.72L-201.78 0L-192.84 0L-207.12 -43.92L-216.66 -43.92ZM-217.08 -17.16L-211.8 -32.88L-206.88 -17.16Z M-183.54 -22.08C-183.54 -18.48 -183.28 -15.35 -182.76 -12.69C-182.24 -10.03 -181.41 -7.71 -180.27 -5.73C-179.13 -3.75 -177.58 -2.25 -175.62 -1.23C-173.66 -0.21 -171.32 0.32 -168.6 0.36C-162.32 0.44 -157.22 -0.12 -153.3 -1.32L-153.3 -7.86L-155.22 -7.74C-156.5 -7.66 -158.25 -7.58 -160.47 -7.5C-162.69 -7.42 -164.74 -7.38 -166.62 -7.38C-169.94 -7.38 -172.19 -8.51 -173.37 -10.77C-174.55 -13.03 -175.14 -16.76 -175.14 -21.96C-175.14 -24.2 -175.08 -26.11 -174.96 -27.69C-174.84 -29.27 -174.62 -30.6 -174.3 -31.68C-173.98 -32.76 -173.62 -33.63 -173.22 -34.29C-172.82 -34.95 -172.27 -35.46 -171.57 -35.82C-170.87 -36.18 -170.15 -36.41 -169.41 -36.51C-168.67 -36.61 -167.74 -36.66 -166.62 -36.66C-166.02 -36.66 -165.36 -36.65 -164.64 -36.63C-163.92 -36.61 -163.23 -36.58 -162.57 -36.54L-160.59 -36.42C-159.93 -36.38 -159.3 -36.34 -158.7 -36.3C-158.1 -36.26 -157.52 -36.22 -156.96 -36.18C-156.4 -36.14 -155.9 -36.1 -155.46 -36.06C-155.02 -36.02 -154.64 -35.98 -154.32 -35.94C-154 -35.9 -153.75 -35.87 -153.57 -35.85L-153.3 -35.82L-153.3 -42.42C-157.78 -43.74 -162.88 -44.4 -168.6 -44.4C-170.96 -44.4 -173.01 -44.07 -174.75 -43.41C-176.49 -42.75 -177.92 -41.82 -179.04 -40.62C-180.16 -39.42 -181.06 -37.87 -181.74 -35.97C-182.42 -34.07 -182.89 -32.02 -183.15 -29.82C-183.41 -27.62 -183.54 -25.04 -183.54 -22.08Z M-142.14 0L-133.74 0L-133.74 -17.4L-118.68 -17.4L-118.68 0L-110.28 0L-110.28 -43.92L-118.68 -43.92L-118.68 -25.08L-133.74 -25.08L-133.74 -43.92L-142.14 -43.92Z M-98.1 -8.64C-98.1 -7.08 -97.87 -5.73 -97.41 -4.59C-96.95 -3.45 -96.37 -2.58 -95.67 -1.98C-94.97 -1.38 -94.14 -0.9 -93.18 -0.54C-92.22 -0.18 -91.34 0.04 -90.54 0.12C-89.74 0.2 -88.88 0.22 -87.96 0.18L-84.06 0C-81.42 -0.08 -78.54 -0.21 -75.42 -0.39C-72.3 -0.57 -70.24 -0.72 -69.24 -0.84L-69.24 -7.74L-85.98 -7.74C-86.58 -7.74 -87.03 -7.75 -87.33 -7.77C-87.63 -7.79 -88 -7.89 -88.44 -8.07C-88.88 -8.25 -89.2 -8.57 -89.4 -9.03C-89.6 -9.49 -89.7 -10.1 -89.7 -10.86L-89.7 -17.7L-71.94 -18.24L-71.94 -25.2L-89.7 -25.8L-89.7 -32.64C-89.7 -33.2 -89.68 -33.62 -89.64 -33.9C-89.6 -34.18 -89.49 -34.52 -89.31 -34.92C-89.13 -35.32 -88.82 -35.6 -88.38 -35.76C-87.94 -35.92 -87.34 -36 -86.58 -36L-69.24 -36L-69.24 -42.96C-71.8 -43.32 -78.24 -43.64 -88.56 -43.92C-89.48 -43.92 -90.35 -43.86 -91.17 -43.74C-91.99 -43.62 -92.83 -43.35 -93.69 -42.93C-94.55 -42.51 -95.3 -41.98 -95.94 -41.34C-96.58 -40.7 -97.1 -39.82 -97.5 -38.7C-97.9 -37.58 -98.1 -36.28 -98.1 -34.8Z M-58.5 0L-50.1 0L-50.1 -17.46L-42.72 -16.62L-35.46 0L-25.98 0L-34.32 -17.28C-33.56 -17.52 -32.98 -17.72 -32.58 -17.88C-32.18 -18.04 -31.6 -18.43 -30.84 -19.05C-30.08 -19.67 -29.48 -20.39 -29.04 -21.21C-28.6 -22.03 -28.2 -23.22 -27.84 -24.78C-27.48 -26.34 -27.3 -28.16 -27.3 -30.24C-27.3 -32.76 -27.6 -34.93 -28.2 -36.75C-28.8 -38.57 -29.65 -39.99 -30.75 -41.01C-31.85 -42.03 -33.1 -42.77 -34.5 -43.23C-35.9 -43.69 -37.5 -43.92 -39.3 -43.92L-58.5 -43.92ZM-50.04 -24.06L-50.04 -36.48L-40.08 -36.48C-38.64 -36.48 -37.56 -36.03 -36.84 -35.13C-36.12 -34.23 -35.76 -32.6 -35.76 -30.24C-35.76 -28.92 -35.85 -27.85 -36.03 -27.03C-36.21 -26.21 -36.49 -25.58 -36.87 -25.14C-37.25 -24.7 -37.68 -24.41 -38.16 -24.27C-38.64 -24.13 -39.28 -24.06 -40.08 -24.06Z M-16.68 -39.9L-16.02 -31.86L-8.82 -31.86L-8.22 -39.9L-8.22 -43.92L-16.68 -43.92Z M3.24 -29.16C3.24 -21.44 7.02 -17.56 14.58 -17.52L21.3 -17.52C22.82 -17.52 23.86 -17.18 24.42 -16.5C24.98 -15.82 25.26 -14.78 25.26 -13.38L25.26 -11.04C25.26 -10.24 25.11 -9.57 24.81 -9.03C24.51 -8.49 24.07 -8.1 23.49 -7.86C22.91 -7.62 22.35 -7.46 21.81 -7.38C21.27 -7.3 20.62 -7.26 19.86 -7.26C14.06 -7.26 8.96 -7.48 4.56 -7.92L4.56 -1.32C8.64 -0.12 14.3 0.48 21.54 0.48C22.82 0.48 24 0.39 25.08 0.21C26.16 0.03 27.25 -0.32 28.35 -0.84C29.45 -1.36 30.37 -2.04 31.11 -2.88C31.85 -3.72 32.46 -4.86 32.94 -6.3C33.42 -7.74 33.66 -9.42 33.66 -11.34L33.66 -14.28C33.66 -14.92 33.63 -15.55 33.57 -16.17C33.51 -16.79 33.41 -17.44 33.27 -18.12C33.13 -18.8 32.93 -19.45 32.67 -20.07C32.41 -20.69 32.09 -21.3 31.71 -21.9C31.33 -22.5 30.87 -23.04 30.33 -23.52C29.79 -24 29.19 -24.42 28.53 -24.78C27.87 -25.14 27.09 -25.42 26.19 -25.62C25.29 -25.82 24.32 -25.92 23.28 -25.92L16.32 -25.92C14.56 -25.92 13.34 -26.2 12.66 -26.76C11.98 -27.32 11.64 -28.44 11.64 -30.12L11.64 -32.28C11.64 -34.16 12.07 -35.35 12.93 -35.85C13.79 -36.35 15.28 -36.58 17.4 -36.54C22.64 -36.54 27.54 -36.34 32.1 -35.94L32.1 -42.54C30.3 -43.06 27.78 -43.5 24.54 -43.86C21.3 -44.22 18.16 -44.36 15.12 -44.28C13.68 -44.24 12.39 -44.11 11.25 -43.89C10.11 -43.67 9.03 -43.29 8.01 -42.75C6.99 -42.21 6.14 -41.52 5.46 -40.68C4.78 -39.84 4.24 -38.76 3.84 -37.44C3.44 -36.12 3.24 -34.62 3.24 -32.94Z M70.26 0L78.66 0L78.66 -17.4C78.82 -17.32 80.32 -17.12 83.16 -16.8C86 -16.48 88 -16.28 89.16 -16.2C89.8 -16.16 90.46 -16.17 91.14 -16.23C91.82 -16.29 92.5 -16.37 93.18 -16.47C93.86 -16.57 94.54 -16.78 95.22 -17.1C95.9 -17.42 96.54 -17.79 97.14 -18.21C97.74 -18.63 98.3 -19.21 98.82 -19.95C99.34 -20.69 99.78 -21.53 100.14 -22.47C100.5 -23.41 100.79 -24.56 101.01 -25.92C101.23 -27.28 101.34 -28.76 101.34 -30.36C101.34 -32.64 101.09 -34.62 100.59 -36.3C100.09 -37.98 99.45 -39.3 98.67 -40.26C97.89 -41.22 96.93 -41.98 95.79 -42.54C94.65 -43.1 93.57 -43.47 92.55 -43.65C91.53 -43.83 90.4 -43.92 89.16 -43.92L70.26 -43.92ZM78.66 -23.64L78.66 -36.48L88.5 -36.48C91.38 -36.48 92.84 -34.42 92.88 -30.3C92.88 -27.78 92.51 -26.04 91.77 -25.08C91.03 -24.12 89.94 -23.64 88.5 -23.64Z M112.26 -21.66C112.26 -19.18 112.36 -16.95 112.56 -14.97C112.76 -12.99 113.07 -11.27 113.49 -9.81C113.91 -8.35 114.4 -7.07 114.96 -5.97C115.52 -4.87 116.22 -3.95 117.06 -3.21C117.9 -2.47 118.74 -1.87 119.58 -1.41C120.42 -0.95 121.43 -0.6 122.61 -0.36C123.79 -0.12 124.93 0.04 126.03 0.12C127.13 0.2 128.42 0.24 129.9 0.24C131.58 0.24 133.05 0.18 134.31 0.06C135.57 -0.06 136.84 -0.31 138.12 -0.69C139.4 -1.07 140.49 -1.59 141.39 -2.25C142.29 -2.91 143.15 -3.79 143.97 -4.89C144.79 -5.99 145.44 -7.31 145.92 -8.85C146.4 -10.39 146.79 -12.23 147.09 -14.37C147.39 -16.51 147.54 -18.94 147.54 -21.66C147.54 -24.18 147.43 -26.47 147.21 -28.53C146.99 -30.59 146.66 -32.37 146.22 -33.87C145.78 -35.37 145.28 -36.69 144.72 -37.83C144.16 -38.97 143.45 -39.91 142.59 -40.65C141.73 -41.39 140.88 -42 140.04 -42.48C139.2 -42.96 138.19 -43.33 137.01 -43.59C135.83 -43.85 134.71 -44.02 133.65 -44.1C132.59 -44.18 131.34 -44.22 129.9 -44.22C128.78 -44.22 127.79 -44.19 126.93 -44.13C126.07 -44.07 125.16 -43.97 124.2 -43.83C123.24 -43.69 122.39 -43.49 121.65 -43.23C120.91 -42.97 120.14 -42.63 119.34 -42.21C118.54 -41.79 117.85 -41.27 117.27 -40.65C116.69 -40.03 116.12 -39.31 115.56 -38.49C115 -37.67 114.53 -36.71 114.15 -35.61C113.77 -34.51 113.43 -33.28 113.13 -31.92C112.83 -30.56 112.61 -29.02 112.47 -27.3C112.33 -25.58 112.26 -23.7 112.26 -21.66ZM120.66 -21.66C120.66 -23.66 120.72 -25.4 120.84 -26.88C120.96 -28.36 121.12 -29.63 121.32 -30.69C121.52 -31.75 121.83 -32.64 122.25 -33.36C122.67 -34.08 123.09 -34.65 123.51 -35.07C123.93 -35.49 124.51 -35.8 125.25 -36C125.99 -36.2 126.69 -36.33 127.35 -36.39C128.01 -36.45 128.86 -36.48 129.9 -36.48C131.14 -36.48 132.15 -36.43 132.93 -36.33C133.71 -36.23 134.48 -36.01 135.24 -35.67C136 -35.33 136.59 -34.84 137.01 -34.2C137.43 -33.56 137.82 -32.69 138.18 -31.59C138.54 -30.49 138.79 -29.13 138.93 -27.51C139.07 -25.89 139.14 -23.94 139.14 -21.66C139.14 -17.7 138.84 -14.71 138.24 -12.69C137.64 -10.67 136.72 -9.3 135.48 -8.58C134.24 -7.86 132.38 -7.5 129.9 -7.5C128.3 -7.5 127.01 -7.61 126.03 -7.83C125.05 -8.05 124.18 -8.44 123.42 -9C122.66 -9.56 122.09 -10.4 121.71 -11.52C121.33 -12.64 121.06 -13.99 120.9 -15.57C120.74 -17.15 120.66 -19.18 120.66 -21.66Z M158.04 -22.08C158.04 -18.48 158.3 -15.35 158.82 -12.69C159.34 -10.03 160.17 -7.71 161.31 -5.73C162.45 -3.75 164 -2.25 165.96 -1.23C167.92 -0.21 170.26 0.32 172.98 0.36C179.26 0.44 184.36 -0.12 188.28 -1.32L188.28 -7.86L186.36 -7.74C185.08 -7.66 183.33 -7.58 181.11 -7.5C178.89 -7.42 176.84 -7.38 174.96 -7.38C171.64 -7.38 169.39 -8.51 168.21 -10.77C167.03 -13.03 166.44 -16.76 166.44 -21.96C166.44 -24.2 166.5 -26.11 166.62 -27.69C166.74 -29.27 166.96 -30.6 167.28 -31.68C167.6 -32.76 167.96 -33.63 168.36 -34.29C168.76 -34.95 169.31 -35.46 170.01 -35.82C170.71 -36.18 171.43 -36.41 172.17 -36.51C172.91 -36.61 173.84 -36.66 174.96 -36.66C175.56 -36.66 176.22 -36.65 176.94 -36.63C177.66 -36.61 178.35 -36.58 179.01 -36.54L180.99 -36.42C181.65 -36.38 182.28 -36.34 182.88 -36.3C183.48 -36.26 184.06 -36.22 184.62 -36.18C185.18 -36.14 185.68 -36.1 186.12 -36.06C186.56 -36.02 186.94 -35.98 187.26 -35.94C187.58 -35.9 187.83 -35.87 188.01 -35.85L188.28 -35.82L188.28 -42.42C183.8 -43.74 178.7 -44.4 172.98 -44.4C170.62 -44.4 168.57 -44.07 166.83 -43.41C165.09 -42.75 163.66 -41.82 162.54 -40.62C161.42 -39.42 160.52 -37.87 159.84 -35.97C159.16 -34.07 158.69 -32.02 158.43 -29.82C158.17 -27.62 158.04 -25.04 158.04 -22.08Z M199.44 0L207.54 0L207.54 -18.12L211.02 -18.12L222.18 0L231.96 0L218.52 -21.9L231.96 -43.92L222.18 -43.92L211.02 -25.56L207.48 -25.56L207.48 -43.92L199.44 -43.92Z M243 -8.64C243 -7.08 243.23 -5.73 243.69 -4.59C244.15 -3.45 244.73 -2.58 245.43 -1.98C246.13 -1.38 246.96 -0.9 247.92 -0.54C248.88 -0.18 249.76 0.04 250.56 0.12C251.36 0.2 252.22 0.22 253.14 0.18L257.04 0C259.68 -0.08 262.56 -0.21 265.68 -0.39C268.8 -0.57 270.86 -0.72 271.86 -0.84L271.86 -7.74L255.12 -7.74C254.52 -7.74 254.07 -7.75 253.77 -7.77C253.47 -7.79 253.1 -7.89 252.66 -8.07C252.22 -8.25 251.9 -8.57 251.7 -9.03C251.5 -9.49 251.4 -10.1 251.4 -10.86L251.4 -17.7L269.16 -18.24L269.16 -25.2L251.4 -25.8L251.4 -32.64C251.4 -33.2 251.42 -33.62 251.46 -33.9C251.5 -34.18 251.61 -34.52 251.79 -34.92C251.97 -35.32 252.28 -35.6 252.72 -35.76C253.16 -35.92 253.76 -36 254.52 -36L271.86 -36L271.86 -42.96C269.3 -43.32 262.86 -43.64 252.54 -43.92C251.62 -43.92 250.75 -43.86 249.93 -43.74C249.11 -43.62 248.27 -43.35 247.41 -42.93C246.55 -42.51 245.8 -41.98 245.16 -41.34C244.52 -40.7 244 -39.82 243.6 -38.7C243.2 -37.58 243 -36.28 243 -34.8Z M281.4 -36.18L293.28 -36.18L293.28 0L301.68 0L301.68 -36.18L313.86 -36.18L313.86 -43.92L281.4 -43.92Z"></path></g></g></svg>